<svg xmlns="http://www.w3.org/2000/svg" viewBox="0 0 1200 600" width="1200" height="600">
  <defs>
    <pattern id="circuit" patternUnits="userSpaceOnUse" width="100" height="100">
      <!-- Circuit board traces -->
      <rect width="100" height="100" fill="#1e3c72" opacity="0.05"/>
      <path d="M20 20 L80 20 L80 50 L50 50 L50 80" stroke="#ffffff" stroke-width="1" fill="none" opacity="0.3"/>
      <path d="M10 60 L40 60 L40 30 L70 30" stroke="#ffffff" stroke-width="1" fill="none" opacity="0.2"/>
      <circle cx="20" cy="20" r="2" fill="#ffffff" opacity="0.4"/>
      <circle cx="80" cy="50" r="2" fill="#ffffff" opacity="0.4"/>
      <circle cx="50" cy="80" r="2" fill="#ffffff" opacity="0.4"/>
      <rect x="45" y="45" width="10" height="10" fill="#ffffff" opacity="0.2" rx="1"/>
    </pattern>
    
    <linearGradient id="techGradient" x1="0%" y1="0%" x2="100%" y2="100%">
      <stop offset="0%" style="stop-color:#1e3c72;stop-opacity:1" />
      <stop offset="50%" style="stop-color:#2a5298;stop-opacity:0.8" />
      <stop offset="100%" style="stop-color:#1e3c72;stop-opacity:0.6" />
    </linearGradient>
  </defs>
  
  <!-- Background -->
  <rect width="1200" height="600" fill="url(#techGradient)"/>
  
  <!-- Circuit pattern overlay -->
  <rect width="1200" height="600" fill="url(#circuit)"/>
  
  <!-- Abstract tech elements -->
  <g opacity="0.1">
    <!-- Hexagonal grid -->
    <g transform="translate(100, 50)">
      <polygon points="0,17 10,0 30,0 40,17 30,34 10,34" fill="none" stroke="#ffffff" stroke-width="1"/>
      <polygon points="40,17 50,0 70,0 80,17 70,34 50,34" fill="none" stroke="#ffffff" stroke-width="1"/>
      <polygon points="20,51 30,34 50,34 60,51 50,68 30,68" fill="none" stroke="#ffffff" stroke-width="1"/>
    </g>
    
    <!-- Data flow lines -->
    <g transform="translate(800, 200)">
      <path d="M0 0 Q50 -30 100 0 T200 0" stroke="#ffffff" stroke-width="2" fill="none"/>
      <path d="M0 20 Q30 50 60 20 T120 20" stroke="#ffffff" stroke-width="1.5" fill="none"/>
      <path d="M0 40 Q70 10 140 40" stroke="#ffffff" stroke-width="1" fill="none"/>
      <circle cx="0" cy="0" r="3" fill="#ffffff"/>
      <circle cx="200" cy="0" r="3" fill="#ffffff"/>
      <circle cx="120" cy="20" r="2" fill="#ffffff"/>
    </g>
    
    <!-- Microchip outline -->
    <g transform="translate(300, 400)">
      <rect x="0" y="0" width="80" height="60" rx="4" fill="none" stroke="#ffffff" stroke-width="2"/>
      <rect x="10" y="10" width="60" height="40" rx="2" fill="none" stroke="#ffffff" stroke-width="1"/>
      <!-- Pins -->
      <rect x="-5" y="15" width="5" height="3" fill="#ffffff"/>
      <rect x="-5" y="25" width="5" height="3" fill="#ffffff"/>
      <rect x="-5" y="35" width="5" height="3" fill="#ffffff"/>
      <rect x="80" y="15" width="5" height="3" fill="#ffffff"/>
      <rect x="80" y="25" width="5" height="3" fill="#ffffff"/>
      <rect x="80" y="35" width="5" height="3" fill="#ffffff"/>
    </g>
    
    <!-- Geometric shapes -->
    <g transform="translate(600, 100)">
      <circle cx="0" cy="0" r="40" fill="none" stroke="#ffffff" stroke-width="1"/>
      <circle cx="0" cy="0" r="60" fill="none" stroke="#ffffff" stroke-width="1" opacity="0.5"/>
      <path d="M-20,-20 L20,20 M-20,20 L20,-20" stroke="#ffffff" stroke-width="1"/>
    </g>
    
    <!-- Connection nodes -->
    <g>
      <circle cx="150" cy="150" r="3" fill="#ffffff"/>
      <circle cx="400" cy="100" r="2" fill="#ffffff"/>
      <circle cx="750" cy="350" r="3" fill="#ffffff"/>
      <circle cx="1000" cy="250" r="2" fill="#ffffff"/>
      <circle cx="900" cy="450" r="3" fill="#ffffff"/>
    </g>
  </g>
  
  <!-- Subtle overlay for depth -->
  <rect width="1200" height="600" fill="url(#techGradient)" opacity="0.3"/>
</svg>