<svg width="80" height="80" viewBox="0 0 80 80" xmlns="http://www.w3.org/2000/svg">
  <!-- Background circle -->
  <circle cx="40" cy="40" r="38" fill="#fff5e6" stroke="#ff8c00" stroke-width="2"/>
  
  <!-- LED/Photodiode housing -->
  <rect x="25" y="35" width="30" height="25" rx="3" fill="#ff8c00"/>
  <rect x="27" y="37" width="26" height="21" rx="2" fill="#fff"/>
  
  <!-- LED chip -->
  <rect x="37" y="43" width="6" height="6" fill="#ff8c00"/>
  
  <!-- Light emission rays -->
  <g stroke="#ffa500" stroke-width="2" fill="none" opacity="0.8">
    <path d="M43 35 L50 28" stroke-linecap="round"/>
    <path d="M43 35 L53 35" stroke-linecap="round"/>
    <path d="M43 35 L50 42" stroke-linecap="round"/>
    
    <path d="M43 32 L52 23" stroke-linecap="round"/>
    <path d="M43 32 L56 32" stroke-linecap="round"/>
    <path d="M43 32 L52 41" stroke-linecap="round"/>
    
    <path d="M43 29 L54 18" stroke-linecap="round"/>
    <path d="M43 29 L59 29" stroke-linecap="round"/>
    <path d="M43 29 L54 40" stroke-linecap="round"/>
  </g>
  
  <!-- Optical lens -->
  <circle cx="43" cy="33" r="8" fill="none" stroke="#0066cc" stroke-width="1.5" opacity="0.6"/>
  <circle cx="43" cy="33" r="5" fill="none" stroke="#0066cc" stroke-width="1" opacity="0.4"/>
  
  <!-- Connection pins -->
  <rect x="15" y="42" width="10" height="2" fill="#666"/>
  <rect x="15" y="46" width="10" height="2" fill="#666"/>
  <rect x="55" y="42" width="10" height="2" fill="#666"/>
  <rect x="55" y="46" width="10" height="2" fill="#666"/>
  
  <!-- Light particles -->
  <circle cx="52" cy="25" r="1.5" fill="#ffa500" opacity="0.8"/>
  <circle cx="58" cy="30" r="1" fill="#ffa500" opacity="0.6"/>
  <circle cx="55" cy="38" r="1.2" fill="#ffa500" opacity="0.7"/>
  <circle cx="49" cy="20" r="1" fill="#ffa500" opacity="0.5"/>
  <circle cx="61" cy="35" r="1.3" fill="#ffa500" opacity="0.6"/>
</svg>